# xmcd
#
# Track frame offsets: 
#        150
#        44195
#        64670
#        86363
#        110417
#        139511
#        161083
#        191984
#        212831
#        234008
#        253898
#        291274
#
# Disc length: 4220 seconds
#
# Revision: 28
# Processed by: cddbd v1.5.2PL0 Copyright (c) Steve Scherf et al.
# Submitted via: ExactAudioCopy v1.0b3
#
DISCID=b3107a0c
DTITLE=Supertramp - Some Things Never Change
DYEAR=1997
DGENRE=Rock
TTITLE0=Supertramp - It's A Hard World
TTITLE1=Supertramp - You Win, I Lose
TTITLE2=Supertramp - Get Your Act Together
TTITLE3=Supertramp - Live To Love You
TTITLE4=Supertramp - Some Things Never Change
TTITLE5=Supertramp - Listen To Me Please
TTITLE6=Supertramp - Sooner Or Later
TTITLE7=Supertramp - Help Me Down That Road
TTITLE8=Supertramp - And The Light
TTITLE9=Supertramp - Give Me A Chance
TTITLE10=Supertramp - C'est What
TTITLE11=Supertramp - Where There's A Will
EXTD=
EXTT0=
EXTT1=
EXTT2=
EXTT3=
EXTT4=
EXTT5=
EXTT6=
EXTT7=
EXTT8=
EXTT9=
EXTT10=
EXTT11=
PLAYORDER=
